<svg viewBox="0 0 24 20" fill="none" xmlns="http://www.w3.org/2000/svg">
<g id="crown">
<path id="Vector" d="M3.51819 8.58556C3.13013 7.69053 2.9361 7.24303 3.01884 6.95627C3.10933 6.64262 3.377 6.3981 3.71913 6.31653C4.03193 6.24195 4.51853 6.42217 5.49173 6.78262C6.35253 7.10145 6.78293 7.26085 7.18732 7.25199C7.63257 7.24222 8.06088 7.09343 8.4016 6.83015C8.71105 6.59104 8.91861 6.21 9.33373 5.44793L10.2486 3.76844C11.0128 2.36552 11.3949 1.66406 12 1.66406C12.6051 1.66406 12.9872 2.36552 13.7514 3.76844L14.6663 5.44793C15.0814 6.21 15.289 6.59104 15.5984 6.83015C15.9391 7.09343 16.3674 7.24222 16.8127 7.25199C17.2171 7.26085 17.6475 7.10145 18.5083 6.78262C19.4815 6.42217 19.9681 6.24195 20.2809 6.31653C20.623 6.3981 20.8907 6.64262 20.9812 6.95627C21.0639 7.24303 20.8699 7.69053 20.4818 8.58548L18.8138 12.4326L18.8134 12.4335C18.1001 14.0785 17.7434 14.9011 16.9968 15.3659C16.2502 15.8307 15.2854 15.8307 13.3558 15.8307H10.6442C8.71459 15.8307 7.74977 15.8307 7.00315 15.3659C6.25654 14.9011 5.89977 14.0782 5.18622 12.4326L3.51819 8.58556Z" fill="var(--fill-0, #FFC85B)" stroke="var(--stroke-0, #FFC85B)" stroke-width="1.5"/>
<path id="Vector_2" d="M12 11.6641H12.009" stroke="var(--stroke-0, #FFC85B)" stroke-width="2" stroke-linecap="round" stroke-linejoin="round"/>
<path id="Vector_3" d="M7 18.3359H17" stroke="var(--stroke-0, #FFC85B)" stroke-width="1.5" stroke-linecap="round"/>
</g>
</svg>
