<svg viewBox="0 0 19 19" fill="none" xmlns="http://www.w3.org/2000/svg">
<g id="square-lock-02">
<path id="Vector" d="M9.5 13.0625V11.4792" stroke="var(--stroke-0, white)" stroke-width="1.5" stroke-linecap="round"/>
<path id="Vector_2" d="M3.37867 14.9187C3.5567 16.241 4.65193 17.2769 5.98472 17.3382C7.10621 17.3897 8.24545 17.4167 9.5 17.4167C10.7546 17.4167 11.8938 17.3897 13.0152 17.3382C14.3481 17.2769 15.4433 16.241 15.6213 14.9187C15.7375 14.0558 15.8333 13.1714 15.8333 12.2708C15.8333 11.3702 15.7375 10.4859 15.6213 9.62295C15.4433 8.30063 14.3481 7.26472 13.0152 7.20345C11.8938 7.15189 10.7546 7.125 9.5 7.125C8.24545 7.125 7.10621 7.15189 5.98472 7.20345C4.65193 7.26472 3.5567 8.30063 3.37867 9.62295C3.26249 10.4859 3.16666 11.3702 3.16666 12.2708C3.16666 13.1714 3.26249 14.0558 3.37867 14.9187Z" stroke="var(--stroke-0, white)" stroke-width="1.5"/>
<path id="Vector_3" d="M5.9375 7.125V5.14583C5.9375 3.17832 7.53249 1.58333 9.5 1.58333C11.4675 1.58333 13.0625 3.17832 13.0625 5.14583V7.125" stroke="var(--stroke-0, white)" stroke-width="1.5" stroke-linecap="round" stroke-linejoin="round"/>
</g>
</svg>
