<svg viewBox="0 0 17.6484 30.9297" fill="none" xmlns="http://www.w3.org/2000/svg">
<g id="icon_S">
<path id="Rectangle 824550" d="M17.6367 19.4623C17.6367 21.7441 16.2856 23.8095 14.1948 24.7236L3.74395e-07 30.9297L0 26.6471C-1.99487e-07 24.3652 1.35112 22.2999 3.44189 21.3858L14.1899 16.6866C15.8158 15.9758 17.6367 17.167 17.6367 18.9415L17.6367 19.4623Z" fill="url(#paint0_linear_0_310)"/>
<path id="Rectangle 824549" d="M0.000108442 11.4674C0.000108442 9.18555 1.35123 7.12021 3.442 6.20611L17.6368 0V4.28258C17.6368 6.56445 16.2857 8.62979 14.1949 9.54389L3.44688 14.243C1.82103 14.9539 0.000108442 13.7626 0.000108442 11.9882V11.4674Z" fill="url(#paint1_linear_0_310)"/>
<path id="Rectangle 824551" d="M17.6373 17.9688C17.6373 15.9734 16.3262 14.2152 14.4138 13.6459L8.81895 11.9805L4.2252 10.5449C4.2252 10.5449 1.65076 9.76295 1.6002 8.45312C1.57966 7.92107 1.96934 7.14062 1.96934 7.14062C1.96934 7.14062 1.067 7.87891 0.533794 9.02734C0.000590633 10.1758 0.000591884 11.3242 0.000591884 11.3242V12.4564C0.000591884 14.9967 1.66977 17.2352 4.10452 17.9599L8.81895 19.3633L12.6744 20.5117C12.6744 20.5117 16.546 21.4313 16.0787 23.0137C15.9813 23.3435 15.6686 23.793 15.6686 23.793C15.6686 23.793 16.4479 23.1497 17.0221 22.0703C17.7827 20.6404 17.6373 17.9688 17.6373 17.9688Z" fill="url(#paint2_linear_0_310)"/>
</g>
<defs>
<linearGradient id="paint0_linear_0_310" x1="11.8594" y1="15.5078" x2="8.81836" y2="30.9297" gradientUnits="userSpaceOnUse">
<stop offset="0.171494" stop-color="#777777"/>
<stop offset="1" stop-color="white"/>
</linearGradient>
<linearGradient id="paint1_linear_0_310" x1="13.3595" y1="-1.99609" x2="8.81847" y2="15.75" gradientUnits="userSpaceOnUse">
<stop stop-color="white"/>
<stop offset="0.826476" stop-color="#C2C2C2"/>
</linearGradient>
<linearGradient id="paint2_linear_0_310" x1="8.82451" y1="7.14062" x2="8.82451" y2="23.793" gradientUnits="userSpaceOnUse">
<stop stop-color="#999999"/>
<stop offset="1" stop-color="#CECECE"/>
</linearGradient>
</defs>
</svg>
