<svg width="30" height="30" viewBox="4 4 22 22" fill="none" xmlns="http://www.w3.org/2000/svg">
<defs><linearGradient id="cpgrad" x1="5" y1="15" x2="25" y2="15" gradientUnits="userSpaceOnUse">
<stop stop-color="#4EE7FF"/><stop offset="0.45" stop-color="#83F3E0"/><stop offset="0.78" stop-color="#B8FFC1"/><stop offset="1" stop-color="#FAE68E"/>
</linearGradient></defs>
<path d="M25 12H5V20.8385C4.99998 21.3657 4.99997 21.8205 5.03057 22.195C5.06287 22.5904 5.13419 22.9836 5.32698 23.362C5.6146 23.9265 6.07355 24.3854 6.63803 24.673C7.01641 24.8658 7.40963 24.9371 7.80497 24.9694C8.17954 25 8.6343 25 9.16144 25H20.8386C21.3657 25 21.8205 25 22.195 24.9694C22.5904 24.9371 22.9836 24.8658 23.362 24.673C23.9265 24.3854 24.3854 23.9265 24.673 23.362C24.8658 22.9836 24.9371 22.5904 24.9694 22.195C25 21.8205 25 21.3657 25 20.8386V12Z" fill="url(#cpgrad)"/>
<path d="M10 5C10.5523 5 11 5.44772 11 6V7H19V6C19 5.44772 19.4477 5 20 5C20.5523 5 21 5.44772 21 6V7.00003C21.459 7.00031 21.8593 7.00314 22.195 7.03057C22.5904 7.06287 22.9836 7.13419 23.362 7.32698C23.9265 7.6146 24.3854 8.07354 24.673 8.63803C24.8658 9.01641 24.9371 9.40963 24.9694 9.80497C25 10.1795 25 10.6343 25 11.1614V12H5V11.1614C4.99998 10.6343 4.99997 10.1795 5.03057 9.80497C5.06287 9.40963 5.13419 9.01641 5.32698 8.63803C5.6146 8.07354 6.07355 7.6146 6.63803 7.32698C7.01641 7.13419 7.40963 7.06287 7.80498 7.03057C8.14075 7.00314 8.54097 7.00031 9 7.00003V6C9 5.44772 9.44772 5 10 5Z" fill="#168094"/>
<path d="M8 15.9999C8.00008 15.4476 8.44785 14.9999 9.00014 15L21.0001 15.0014C21.5524 15.0014 22.0001 15.4492 22 16.0015C21.9999 16.5538 21.5522 17.0014 20.9999 17.0014L8.99986 17C8.44758 16.9999 7.99993 16.5521 8 15.9999Z" fill="#168094"/>
<path d="M8 19.9999C8.00008 19.4476 8.44785 18.9999 9.00014 19L12.3335 19.0005C12.8858 19.0005 13.3334 19.4483 13.3333 20.0006C13.3333 20.5529 12.8855 21.0005 12.3332 21.0005L8.99986 21C8.44758 20.9999 7.99993 20.5521 8 19.9999Z" fill="#168094"/>
</svg>
