<svg viewBox="0 0 24.8254 18.0018" fill="none" xmlns="http://www.w3.org/2000/svg">
<g id="Group 1972082992">
<path id="Vector 88" d="M7.83221 15.5203L10.9354 17.2012C11.8574 17.7006 12.9693 17.7006 13.8914 17.2012L16.9945 15.5203C17.9959 14.9779 18.6197 13.9306 18.6197 12.7917V9.76475C18.6197 8.6259 17.9959 7.57856 16.9945 7.03615L13.8914 5.35527C12.9693 4.85583 11.8574 4.85583 10.9354 5.35526L7.83222 7.03615C6.83084 7.57856 6.20703 8.62591 6.20703 9.76475V12.7917C6.20703 13.9306 6.83084 14.9779 7.83221 15.5203Z" fill="var(--fill-0, #B3B3B3)"/>
<path id="Vector 87" d="M3.35827 8.54261L11.4274 12.9134C12.0421 13.2463 12.7833 13.2463 13.398 12.9134L21.4671 8.54261C22.9117 7.76011 22.9117 5.68698 21.4671 4.90448L13.398 0.533718C12.7833 0.20076 12.0421 0.20076 11.4274 0.533718L3.35827 4.90448C1.91366 5.68698 1.91366 7.76011 3.35827 8.54261Z" fill="var(--fill-0, #E6E6E6)"/>
<rect id="Rectangle 8245075" x="19.9648" y="10.2422" width="1.44815" height="3.93069" rx="0.724074" fill="var(--fill-0, #B3B3B3)"/>
<circle id="Ellipse 274" cx="20.6864" cy="16.4481" r="1.44815" fill="var(--fill-0, #E6E6E6)"/>
</g>
</svg>
