<svg width="30" height="30" viewBox="0 0 30 30" fill="none" xmlns="http://www.w3.org/2000/svg">
<path d="M10.1953 13.8281V8.60551V8.43036C10.1953 5.95813 12.7445 4.30801 15 5.32018" stroke="#00E699" stroke-width="3.51562" stroke-linecap="round"/>
<path d="M13.6123 10.2539L18.1352 7.6426L18.2869 7.55502C20.4279 6.31891 23.1316 7.70148 23.3827 10.1609" stroke="#00CC88" stroke-width="3.51562" stroke-linecap="round"/>
<path d="M18.417 11.4258L22.9399 14.0371L23.0916 14.1247C25.2326 15.3608 25.3871 18.3935 23.3827 19.8407" stroke="#00B377" stroke-width="3.51562" stroke-linecap="round"/>
<path d="M19.8047 16.1719L19.8047 21.3945L19.8047 21.5696C19.8047 24.0419 17.2555 25.692 15 24.6798" stroke="#009966" stroke-width="3.51562" stroke-linecap="round"/>
<path d="M16.3877 19.7461L11.8648 22.3574L11.7131 22.445C9.57208 23.6811 6.86845 22.2985 6.61726 19.8391" stroke="#00B377" stroke-width="3.51562" stroke-linecap="round"/>
<path d="M11.583 18.5742L7.06009 15.9629L6.9084 15.8753C4.76739 14.6392 4.61292 11.6065 6.61726 10.1593" stroke="#00CC88" stroke-width="3.51562" stroke-linecap="round"/>
</svg>
